<svg xmlns="http://www.w3.org/2000/svg"
     xml:space="preserve"
     viewBox="0 0 492 492">
    <!--  https://joyofcode.xyz/dark-mode-favicon  -->
    <!--  https://iconly.io/tools/svg-convert-stroke-to-fill  -->
    <style>
        path {
            fill: black;
        }
        @media (prefers-color-scheme: dark) {
            path {
                fill: white;
            }
        }
    </style>
    <path d="M226.73 84.595c-10.372 1.171-25.451 4.458-35.26 7.687-17.43 5.738-39.688 17.74-53.71 28.963-5.645 4.519-24.6 23.032-24.6 24.028 0 .709 29.922 25.998 31.459 26.588.612.235 2.431-1.232 4.188-3.377 1.709-2.085 6.269-6.556 10.134-9.935 43.916-38.394 106.674-43.722 156.557-13.293 13.462 8.212 29.073 22.818 38.107 35.652 30.765 43.713 32.554 100.176 4.627 146.07-1.851 3.043-3.521 5.7-3.711 5.905-.189.206-11.399-10.677-24.911-24.183l-24.567-24.556-14.763 14.746-14.764 14.746 24.807 24.832c14.532 14.546 24.451 25.078 23.948 25.427-.473.327-2.551 1.782-4.618 3.233-10.813 7.588-29.846 15.705-44.543 18.997-17.157 3.843-36.27 4.336-52.07 1.343-30.553-5.788-57.545-21.483-79.003-45.938-3.166-3.608-6.102-6.698-6.525-6.866-.423-.169-11.979 10.898-25.679 24.593l-24.91 24.9 14.954 14.97 14.953 14.97 10.351-10.328 10.351-10.328 4.829 3.663c20.862 15.826 47.054 26.887 76.579 32.339 11.125 2.055 43.844 2.037 54.94-.03 28.125-5.238 52.206-15.188 73.504-30.371l7.894-5.628 48.678 48.672 48.678 48.673L467.4 476.01l14.766-14.749-48.861-48.866-48.86-48.865 6.309-9.36c18.939-28.096 29.207-61.793 29.211-95.87.002-21.102-2.45-36.622-8.809-55.76-19.347-58.225-67.664-101.756-127.488-114.861-17.264-3.782-39.897-5.008-56.938-3.084m-5.742 146.647-24.591 24.601 24.801 24.802L246 305.447l24.802-24.802 24.801-24.802-24.591-24.601C257.486 217.711 246.231 206.64 246 206.64c-.231 0-11.486 11.071-25.012 24.602m-186.96 185.32L9.437 441.163l24.801 24.802 24.802 24.802 24.802-24.802 24.801-24.802-24.591-24.601C70.526 403.031 59.271 391.96 59.04 391.96c-.231 0-11.486 11.071-25.012 24.602"/>
</svg>